<mxfile host="app.diagrams.net" modified="2023-11-10T14:01:06.672Z" agent="Mozilla/5.0 (Windows NT 10.0; Win64; x64) AppleWebKit/537.36 (KHTML, like Gecko) Chrome/119.0.0.0 Safari/537.36 Edg/119.0.0.0" etag="AgXSPnL049bB1OjkoG0A" version="22.1.0" type="google">
  <diagram name="Page-1" id="ytVNANfegc0T6UEuO31r">
    <mxGraphModel grid="1" page="1" gridSize="10" guides="1" tooltips="1" connect="1" arrows="1" fold="1" pageScale="1" pageWidth="850" pageHeight="1100" math="0" shadow="0">
      <root>
        <mxCell id="0" />
        <mxCell id="1" parent="0" />
        <mxCell id="zIVg0EI_wLqaRHsxA-tP-23" style="edgeStyle=orthogonalEdgeStyle;rounded=0;orthogonalLoop=1;jettySize=auto;html=1;endArrow=none;endFill=0;" edge="1" parent="1" source="zIVg0EI_wLqaRHsxA-tP-14" target="zIVg0EI_wLqaRHsxA-tP-19">
          <mxGeometry relative="1" as="geometry" />
        </mxCell>
        <mxCell id="zIVg0EI_wLqaRHsxA-tP-14" value="&amp;lt;&amp;lt;server&amp;gt;&amp;gt;&lt;br&gt;SPSS server" style="shape=cube;whiteSpace=wrap;html=1;boundedLbl=1;backgroundOutline=1;darkOpacity=0.05;darkOpacity2=0.1;flipH=1;horizontal=1;verticalAlign=top;fillColor=#fad7ac;strokeColor=#b46504;" vertex="1" parent="1">
          <mxGeometry x="730" y="-430" width="490" height="980" as="geometry" />
        </mxCell>
        <mxCell id="zIVg0EI_wLqaRHsxA-tP-15" value="&amp;lt;&amp;lt;execution environment&amp;gt;&amp;gt;&lt;br&gt;ReactJS" style="shape=cube;whiteSpace=wrap;html=1;boundedLbl=1;backgroundOutline=1;darkOpacity=0.05;darkOpacity2=0.1;flipH=1;horizontal=1;verticalAlign=top;fillColor=#b1ddf0;strokeColor=#10739e;" vertex="1" parent="1">
          <mxGeometry x="745" y="-340" width="410" height="330" as="geometry" />
        </mxCell>
        <mxCell id="zIVg0EI_wLqaRHsxA-tP-16" value="&amp;lt;&amp;lt;framework&amp;gt;&amp;gt;&lt;br&gt;Bootstrap" style="shape=cube;whiteSpace=wrap;html=1;boundedLbl=1;backgroundOutline=1;darkOpacity=0.05;darkOpacity2=0.1;flipH=1;horizontal=1;verticalAlign=top;fillColor=#cdeb8b;strokeColor=#36393d;" vertex="1" parent="1">
          <mxGeometry x="810" y="-270" width="280" height="240" as="geometry" />
        </mxCell>
        <mxCell id="zIVg0EI_wLqaRHsxA-tP-17" value="&amp;lt;&amp;lt;execution environent&amp;gt;&amp;gt;&lt;br&gt;NodeJS" style="shape=cube;whiteSpace=wrap;html=1;boundedLbl=1;backgroundOutline=1;darkOpacity=0.05;darkOpacity2=0.1;flipH=1;horizontal=1;verticalAlign=top;fillColor=#b1ddf0;strokeColor=#10739e;" vertex="1" parent="1">
          <mxGeometry x="760" y="160" width="410" height="330" as="geometry" />
        </mxCell>
        <mxCell id="zIVg0EI_wLqaRHsxA-tP-18" value="&amp;lt;&amp;lt;framework&amp;gt;&amp;gt;&lt;br&gt;SailsJS&lt;br&gt;" style="shape=cube;whiteSpace=wrap;html=1;boundedLbl=1;backgroundOutline=1;darkOpacity=0.05;darkOpacity2=0.1;flipH=1;horizontal=1;verticalAlign=top;fillColor=#cdeb8b;strokeColor=#36393d;" vertex="1" parent="1">
          <mxGeometry x="810" y="230" width="280" height="240" as="geometry" />
        </mxCell>
        <mxCell id="zIVg0EI_wLqaRHsxA-tP-19" value="&amp;lt;&amp;lt;database server&amp;gt;&amp;gt;&lt;br&gt;SPSS database" style="shape=cube;whiteSpace=wrap;html=1;boundedLbl=1;backgroundOutline=1;darkOpacity=0.05;darkOpacity2=0.1;flipH=1;horizontal=1;verticalAlign=top;fillColor=#fad9d5;strokeColor=#ae4132;" vertex="1" parent="1">
          <mxGeometry x="1420" y="-177.5" width="470" height="475" as="geometry" />
        </mxCell>
        <mxCell id="zIVg0EI_wLqaRHsxA-tP-20" value="&amp;lt;&amp;lt;execution environment&amp;gt;&amp;gt;&lt;br&gt;Document-oriented database (MongoDB)&lt;br&gt;" style="shape=cube;whiteSpace=wrap;html=1;boundedLbl=1;backgroundOutline=1;darkOpacity=0.05;darkOpacity2=0.1;flipH=1;horizontal=1;verticalAlign=top;fillColor=#b1ddf0;strokeColor=#10739e;" vertex="1" parent="1">
          <mxGeometry x="1490" y="-50" width="320" height="280" as="geometry" />
        </mxCell>
        <mxCell id="zIVg0EI_wLqaRHsxA-tP-26" value="" style="group" vertex="1" connectable="0" parent="1">
          <mxGeometry x="270" y="-60" width="250" height="240" as="geometry" />
        </mxCell>
        <mxCell id="zIVg0EI_wLqaRHsxA-tP-11" value="&amp;lt;&amp;lt;device&amp;gt;&amp;gt;&lt;br&gt;Client&#39;s computer" style="shape=cube;whiteSpace=wrap;html=1;boundedLbl=1;backgroundOutline=1;darkOpacity=0.05;darkOpacity2=0.1;flipH=1;horizontal=1;verticalAlign=top;fillColor=#b0e3e6;strokeColor=#0e8088;" vertex="1" parent="zIVg0EI_wLqaRHsxA-tP-26">
          <mxGeometry width="250" height="240" as="geometry" />
        </mxCell>
        <mxCell id="zIVg0EI_wLqaRHsxA-tP-12" value="&amp;lt;&amp;lt;browser&amp;gt;&amp;gt;&lt;br&gt;" style="shape=cube;whiteSpace=wrap;html=1;boundedLbl=1;backgroundOutline=1;darkOpacity=0.05;darkOpacity2=0.1;flipH=1;horizontal=1;verticalAlign=top;fillColor=#ffe6cc;strokeColor=#d79b00;" vertex="1" parent="zIVg0EI_wLqaRHsxA-tP-26">
          <mxGeometry x="20" y="70" width="190" height="160" as="geometry" />
        </mxCell>
        <mxCell id="zIVg0EI_wLqaRHsxA-tP-13" value="&amp;lt;&amp;lt;artifact&amp;gt;&amp;gt;&lt;br&gt;HTML5" style="rounded=0;whiteSpace=wrap;html=1;fillColor=#fad9d5;strokeColor=#ae4132;" vertex="1" parent="zIVg0EI_wLqaRHsxA-tP-26">
          <mxGeometry x="55" y="140" width="100" height="60" as="geometry" />
        </mxCell>
        <mxCell id="zIVg0EI_wLqaRHsxA-tP-27" style="edgeStyle=orthogonalEdgeStyle;rounded=0;orthogonalLoop=1;jettySize=auto;html=1;endArrow=none;endFill=0;" edge="1" parent="1" source="zIVg0EI_wLqaRHsxA-tP-11" target="zIVg0EI_wLqaRHsxA-tP-14">
          <mxGeometry relative="1" as="geometry" />
        </mxCell>
        <mxCell id="-qjFBLUPTHb5BNXVG2UT-1" value="&amp;lt;&amp;lt;schema&amp;gt;&amp;gt;&lt;br&gt;Printer" style="rounded=0;whiteSpace=wrap;html=1;fillColor=#fff2cc;strokeColor=#d6b656;" vertex="1" parent="1">
          <mxGeometry x="1520" y="30" width="100" height="60" as="geometry" />
        </mxCell>
        <mxCell id="-qjFBLUPTHb5BNXVG2UT-2" value="&amp;lt;&amp;lt;schema&amp;gt;&amp;gt;&lt;br&gt;Log" style="rounded=0;whiteSpace=wrap;html=1;fillColor=#fff2cc;strokeColor=#d6b656;" vertex="1" parent="1">
          <mxGeometry x="1520" y="110" width="100" height="60" as="geometry" />
        </mxCell>
        <mxCell id="-qjFBLUPTHb5BNXVG2UT-3" value="&amp;lt;&amp;lt;schema&amp;gt;&amp;gt;&lt;br&gt;Student" style="rounded=0;whiteSpace=wrap;html=1;fillColor=#fff2cc;strokeColor=#d6b656;" vertex="1" parent="1">
          <mxGeometry x="1650" y="110" width="100" height="60" as="geometry" />
        </mxCell>
        <mxCell id="-qjFBLUPTHb5BNXVG2UT-4" value="&amp;lt;&amp;lt;schema&amp;gt;&amp;gt;&lt;br&gt;SPSO" style="rounded=0;whiteSpace=wrap;html=1;fillColor=#fff2cc;strokeColor=#d6b656;" vertex="1" parent="1">
          <mxGeometry x="1650" y="30" width="100" height="60" as="geometry" />
        </mxCell>
      </root>
    </mxGraphModel>
  </diagram>
</mxfile>
